<svg width="25" height="25" viewBox="0 0 20 20" fill="none" xmlns="http://www.w3.org/2000/svg">
<path d="M1.69158 15.2748C1.69158 15.5748 1.75825 15.8832 1.89992 16.1832C2.04158 16.4832 2.22492 16.7665 2.46658 17.0332C2.87492 17.4832 3.32492 17.8082 3.83325 18.0165C4.33325 18.2248 4.87492 18.3332 5.45825 18.3332C6.30825 18.3332 7.21658 18.1332 8.17492 17.7248C9.13325 17.3165 10.0916 16.7665 11.0416 16.0748C11.9999 15.3748 12.9083 14.5998 13.7749 13.7415C14.6333 12.8748 15.4083 11.9665 16.0999 11.0165C16.7833 10.0665 17.3333 9.1165 17.7333 8.17484C18.1333 7.22484 18.3333 6.3165 18.3333 5.44984C18.3333 4.88317 18.2333 4.3415 18.0333 3.8415C17.8333 3.33317 17.5166 2.8665 17.0749 2.44984C16.5416 1.92484 15.9583 1.6665 15.3416 1.6665C15.1083 1.6665 14.8749 1.7165 14.6666 1.8165C14.4499 1.9165 14.2583 2.0665 14.1083 2.28317L12.1749 5.00817C12.0249 5.2165 11.9166 5.40817 11.8416 5.5915C11.7666 5.7665 11.7249 5.9415 11.7249 6.09984C11.7249 6.29984 11.7833 6.49984 11.8999 6.6915C12.0083 6.88317 12.1666 7.08317 12.3666 7.28317L12.9999 7.9415C13.0916 8.03317 13.1333 8.1415 13.1333 8.27484C13.1333 8.3415 13.1249 8.39984 13.1083 8.4665C13.0833 8.53317 13.0583 8.58317 13.0416 8.63317C12.8916 8.90817 12.6333 9.2665 12.2666 9.69984C11.8916 10.1332 11.4916 10.5748 11.0583 11.0165C10.6083 11.4582 10.1749 11.8665 9.73325 12.2415C9.29992 12.6082 8.94158 12.8582 8.65825 13.0082C8.61658 13.0248 8.56658 13.0498 8.50825 13.0748C8.44158 13.0998 8.37492 13.1082 8.29992 13.1082C8.15825 13.1082 8.04992 13.0582 7.95825 12.9665L7.32492 12.3415C7.11658 12.1332 6.91658 11.9748 6.72492 11.8748C6.53325 11.7582 6.34158 11.6998 6.13325 11.6998C5.97492 11.6998 5.80825 11.7332 5.62492 11.8082C5.44158 11.8832 5.24992 11.9915 5.04158 12.1332L2.28325 14.0915C2.06658 14.2415 1.91658 14.4165 1.82492 14.6248C1.74158 14.8332 1.69158 15.0415 1.69158 15.2748Z" stroke="black" stroke-width="1.5" stroke-miterlimit="10"/>
<path d="M4.58333 7.50016C4.58333 7.00016 4.975 6.2335 5.55833 5.6085C6.09167 5.0335 6.8 4.5835 7.5 4.5835" stroke="#FF3F3F" stroke-width="1.5" stroke-linecap="round" stroke-linejoin="round"/>
<path d="M1.66667 7.49984C1.66667 4.27484 4.275 1.6665 7.5 1.6665" stroke="#FF3F3F" stroke-width="1.5" stroke-linecap="round" stroke-linejoin="round"/>
</svg>
