<svg width="20" height="21" viewBox="0 0 20 21" fill="none" xmlns="http://www.w3.org/2000/svg">
<path d="M14.1416 10.708V14.458C14.1416 17.583 12.8916 18.833 9.7666 18.833H6.0166C2.8916 18.833 1.6416 17.583 1.6416 14.458V10.708C1.6416 7.58301 2.8916 6.33301 6.0166 6.33301H9.7666C12.8916 6.33301 14.1416 7.58301 14.1416 10.708Z" stroke="black" stroke-width="1.5" stroke-linecap="round" stroke-linejoin="round"/>
<path d="M18.3084 6.75032C18.3084 9.14199 16.4834 11.1003 14.1417 11.3087V10.7087C14.1417 7.58366 12.8917 6.33366 9.76675 6.33366H9.16675C9.37508 3.99199 11.3334 2.16699 13.7251 2.16699C16.0501 2.16699 17.9667 3.89199 18.2584 6.14199C18.2917 6.33366 18.3084 6.54199 18.3084 6.75032Z" stroke="black" stroke-width="1.5" stroke-linecap="round" stroke-linejoin="round"/>
</svg>
