<svg width="25" height="25" viewBox="0 0 20 20" fill="none" xmlns="http://www.w3.org/2000/svg">
<path d="M9.99988 11.6665H9.16654C8.24988 11.6665 7.49988 10.9165 7.49988 9.99984V1.6665H14.9999C16.2499 1.6665 17.3415 2.35816 17.9082 3.37483" stroke="#FF3F3F" stroke-width="1.5" stroke-linecap="round" stroke-linejoin="round"/>
<path d="M18.3333 14.1665C18.3333 15.5498 17.2166 16.6665 15.8333 16.6665H14.9999C14.9999 15.7498 14.2499 14.9998 13.3333 14.9998C12.4166 14.9998 11.6666 15.7498 11.6666 16.6665H8.33325C8.33325 15.7498 7.58325 14.9998 6.66659 14.9998C5.74992 14.9998 4.99992 15.7498 4.99992 16.6665H4.16659C2.78325 16.6665 1.66659 15.5498 1.66659 14.1665V11.6665H4.16659C4.62492 11.6665 4.99992 11.2915 4.99992 10.8332V8.33317C4.99992 7.87484 4.62492 7.49984 4.16659 7.49984H3.09161L4.51657 5.00818C4.81657 4.49151 5.36657 4.1665 5.96656 4.1665H7.49992V9.99984C7.49992 10.9165 8.24992 11.6665 9.16659 11.6665H9.99992" stroke="black" stroke-width="1.5" stroke-linecap="round" stroke-linejoin="round"/>
<path d="M13.3333 18.3333C12.4129 18.3333 11.6667 17.5871 11.6667 16.6667C11.6667 15.7462 12.4129 15 13.3333 15C14.2538 15 15 15.7462 15 16.6667C15 17.5871 14.2538 18.3333 13.3333 18.3333Z" stroke="black" stroke-width="1.5" stroke-linecap="round" stroke-linejoin="round"/>
<path d="M6.66659 18.3333C5.74611 18.3333 4.99992 17.5871 4.99992 16.6667C4.99992 15.7462 5.74611 15 6.66659 15C7.58706 15 8.33325 15.7462 8.33325 16.6667C8.33325 17.5871 7.58706 18.3333 6.66659 18.3333Z" stroke="black" stroke-width="1.5" stroke-linecap="round" stroke-linejoin="round"/>
<path d="M1.66667 10V11.6667H4.16667C4.625 11.6667 5 11.2917 5 10.8333V8.33333C5 7.875 4.625 7.5 4.16667 7.5H3.09169L1.66667 10Z" stroke="black" stroke-width="1.5" stroke-linecap="round" stroke-linejoin="round"/>
<path d="M18.3333 6.6665H13.3333" stroke="black" stroke-width="1.5" stroke-linecap="round" stroke-linejoin="round"/>
<path d="M18.3333 9.1665H14.9999" stroke="black" stroke-width="1.5" stroke-linecap="round" stroke-linejoin="round"/>
<path d="M18.3333 11.6665H16.6666" stroke="black" stroke-width="1.5" stroke-linecap="round" stroke-linejoin="round"/>
</svg>
